<svg width="390" height="267" viewBox="0 0 390 267" fill="none" xmlns="http://www.w3.org/2000/svg">
<rect width="84.8932" height="288.685" transform="matrix(0.86601 0.500028 3.18351e-05 1 184.674 0.000976562)" fill="#6E6E6E"/>
<rect width="80.2201" height="288.685" transform="matrix(0.86601 -0.500028 -3.18351e-05 1 115.203 40.1123)" fill="#5A5A5A"/>
<rect width="84.8932" height="288.685" transform="matrix(0.86601 0.500028 3.18351e-05 1 115.202 40.1094)" fill="#C3D2CC"/>
<rect width="80.2201" height="288.685" transform="matrix(0.86601 -0.500028 -3.18351e-05 1 188.722 82.5566)" fill="#648A7C"/>
<rect width="80.2201" height="84.8932" transform="matrix(0.866041 -0.499972 0.866041 0.499972 115.202 40.1113)" fill="#346654"/>
<rect width="124.558" height="220.457" transform="matrix(0.86601 0.500028 3.18351e-05 1 290.697 85.542)" fill="#6E6E6E"/>
<rect width="117.702" height="220.457" transform="matrix(0.86601 -0.500028 -3.18351e-05 1 188.766 144.395)" fill="#5A5A5A"/>
<rect width="124.558" height="220.457" transform="matrix(0.86601 0.500028 3.18351e-05 1 188.765 144.39)" fill="#C3D2CC"/>
<rect width="117.702" height="220.457" transform="matrix(0.86601 -0.500028 -3.18351e-05 1 296.636 206.671)" fill="#648A7C"/>
<rect width="117.702" height="124.558" transform="matrix(0.866041 -0.499972 0.866041 0.499972 188.765 144.393)" fill="#346654"/>
<rect width="84.8932" height="165.507" transform="matrix(0.86601 0.500028 3.18351e-05 1 69.4766 121.468)" fill="#6E6E6E"/>
<rect width="80.2201" height="165.507" transform="matrix(0.86601 -0.500028 -3.18351e-05 1 0.00488281 161.579)" fill="#5A5A5A"/>
<rect width="84.8932" height="165.507" transform="matrix(0.86601 0.500028 3.18351e-05 1 0.00488281 161.576)" fill="#C3D2CC"/>
<rect width="80.2201" height="165.507" transform="matrix(0.86601 -0.500028 -3.18351e-05 1 73.5244 204.023)" fill="#648A7C"/>
<rect width="80.2201" height="84.8932" transform="matrix(0.866041 -0.499972 0.866041 0.499972 0.00488281 161.578)" fill="#346654"/>
</svg>
