<svg width="100" height="100" viewBox="0 0 100 100" fill="none" xmlns="http://www.w3.org/2000/svg">
<rect width="100" height="100" rx="50" fill="white"/>
<path d="M72.167 58.667C72.5442 58.667 72.8337 58.9565 72.8337 59.3337V61.667C72.8337 65.102 70.1868 67.9038 66.8159 68.1495C66.5479 64.2624 63.2859 61.167 59.3337 61.167C55.3755 61.167 52.1096 64.2717 51.8503 68.167H48.1504C47.8911 64.2717 44.6252 61.167 40.667 61.167C36.7148 61.167 33.4527 64.2624 33.1848 68.1495C29.8139 67.9038 27.167 65.102 27.167 61.667V57.0003C27.167 55.9931 27.9931 55.167 29.0003 55.167H51.167C54.6631 55.167 57.5003 52.3298 57.5003 48.8337V36.0003C57.5003 34.9931 58.3265 34.167 59.3337 34.167H61.2937C62.7907 34.167 64.1677 34.9779 64.9206 36.2736C64.9208 36.274 64.921 36.2743 64.9213 36.2747L66.4112 38.8821C66.4113 38.8823 66.4114 38.8826 66.4116 38.8828C66.4189 38.8963 66.4241 38.9215 66.404 38.9558C66.3944 38.9721 66.3822 38.9837 66.371 38.9905C66.3613 38.9964 66.35 39.0003 66.3337 39.0003C62.8375 39.0003 60.0003 41.8375 60.0003 45.3337V52.3337C60.0003 55.8298 62.8375 58.667 66.3337 58.667H72.167Z" fill="#05422C" stroke="#05422C"/>
<path d="M44.8333 68.6667C44.8333 70.9679 42.9679 72.8333 40.6667 72.8333C38.3655 72.8333 36.5 70.9679 36.5 68.6667C36.5 66.3655 38.3655 64.5 40.6667 64.5C42.9679 64.5 44.8333 66.3655 44.8333 68.6667Z" fill="#C3D2CC" stroke="#C3D2CC"/>
<path d="M63.5003 68.6667C63.5003 70.9679 61.6348 72.8333 59.3337 72.8333C57.0325 72.8333 55.167 70.9679 55.167 68.6667C55.167 66.3655 57.0325 64.5 59.3337 64.5C61.6348 64.5 63.5003 66.3655 63.5003 68.6667Z" fill="#C3D2CC" stroke="#C3D2CC"/>
<path d="M73.3333 51.2367V54.6667H66.3333C65.05 54.6667 64 53.6167 64 52.3333V45.3333C64 44.05 65.05 43 66.3333 43H69.3433L72.7267 48.9267C73.1233 49.6267 73.3333 50.42 73.3333 51.2367Z" fill="#C3D2CC"/>
<path d="M52.5194 26.667H35.276C31.0993 26.667 27.5993 29.6537 26.8293 33.6203H37.026C37.9127 33.6203 38.6127 34.3437 38.6127 35.2303C38.6127 36.117 37.9127 36.817 37.026 36.817H26.666V40.037H32.7327C33.6193 40.037 34.3427 40.7603 34.3427 41.647C34.3427 42.5337 33.6193 43.2337 32.7327 43.2337H26.666V46.4537H28.4627C29.3493 46.4537 30.0727 47.177 30.0727 48.0637C30.0727 48.9503 29.3493 49.6503 28.4627 49.6503H26.666V50.187C26.666 51.4703 27.716 52.5203 28.9993 52.5203H50.3493C52.7293 52.5203 54.666 50.5837 54.666 48.2037V28.8137C54.666 27.6237 53.7094 26.667 52.5194 26.667Z" fill="#05422C"/>
<path d="M26.8297 33.6201H26.4797H24.193C23.3063 33.6201 22.583 34.3435 22.583 35.2301C22.583 36.1168 23.3063 36.8168 24.193 36.8168H26.3163H26.6663V35.2768C26.6663 34.7168 26.7363 34.1568 26.8297 33.6201Z" fill="#05422C"/>
<path d="M26.3163 40.0371H24.193C23.3063 40.0371 22.583 40.7604 22.583 41.6471C22.583 42.5338 23.3063 43.2338 24.193 43.2338H26.3163H26.6663V40.0371H26.3163Z" fill="#05422C"/>
<path d="M26.3163 46.4541H24.193C23.3063 46.4541 22.583 47.1774 22.583 48.0641C22.583 48.9508 23.3063 49.6508 24.193 49.6508H26.3163H26.6663V46.4541H26.3163Z" fill="#05422C"/>
<rect x="30" y="84" width="40" height="4" rx="2" fill="#F2F6F4"/>
</svg>
